<svg width="795" height="539" viewBox="0 0 795 539" fill="none" xmlns="http://www.w3.org/2000/svg">
    <g clip-path="url(#clip0_706_5236)">
        <path d="M161.522 169.434H9.17313C5.92459 169.434 3.28848 166.798 3.28848 163.55C3.28848 160.302 5.92459 157.666 9.17313 157.666H161.522C164.77 157.666 167.406 160.302 167.406 163.55C167.406 166.798 164.77 169.434 161.522 169.434Z"
              fill="#F4B0A7"/>
        <path d="M442.241 12.0469H342.987C339.659 12.0469 336.956 9.34461 336.956 6.01663C336.956 2.68865 339.659 -0.0136719 342.987 -0.0136719H442.241C445.569 -0.0136719 448.272 2.68865 448.272 6.01663C448.258 9.35793 445.569 12.0469 442.241 12.0469Z"
              fill="#FFD4CD"/>
        <path d="M77.0063 247.109H59.4989C54.8923 247.109 51.1645 243.381 51.1645 238.775V222.335C51.1645 217.729 54.8923 214.002 59.4989 214.002H77.0063C81.6129 214.002 85.3407 217.729 85.3407 222.335V238.775C85.3407 243.381 81.6129 247.109 77.0063 247.109Z"
              fill="#FF684C"/>
        <path d="M586.441 539H576.882C574.366 539 572.342 536.964 572.342 534.461V525.489C572.342 522.973 574.379 520.949 576.882 520.949H586.441C588.957 520.949 590.981 522.986 590.981 525.489V534.461C590.994 536.964 588.957 539 586.441 539Z"
              fill="#4CD080"/>
        <path d="M757.815 156.016H748.256C745.739 156.016 743.716 153.979 743.716 151.476V142.504C743.716 139.988 745.753 137.965 748.256 137.965H757.815C760.331 137.965 762.355 140.002 762.355 142.504V151.476C762.355 153.979 760.318 156.016 757.815 156.016Z"
              fill="#FFB200"/>
        <path d="M89.6943 433.117L41.4455 458.117L55.345 464.84L38.0905 485.473L51.5506 496.509L68.2326 474.344L79.4028 486.325L89.6943 433.117Z"
              fill="#FFD4CD"/>
        <path d="M257.7 537.095H201.33C197.149 537.095 193.767 533.714 193.767 529.534C193.767 525.354 197.149 521.973 201.33 521.973H257.7C261.88 521.973 265.262 525.354 265.262 529.534C265.249 533.714 261.867 537.095 257.7 537.095Z"
              fill="#FF684C"/>
        <path d="M619.486 483.541H165.476C160.217 483.541 155.956 479.282 155.956 474.023V95.938C155.956 90.6797 160.217 86.4199 165.476 86.4199H619.486C624.745 86.4199 629.005 90.6797 629.005 95.938V474.023C629.005 479.282 624.745 483.541 619.486 483.541Z"
              fill="#FCE7E4"/>
        <path d="M629.005 132.906H155.956V135.489H629.005V132.906Z" fill="white"/>
        <path d="M619.486 484.833H165.476C159.511 484.833 154.665 479.987 154.665 474.024V95.9382C154.665 89.9744 159.511 85.1289 165.476 85.1289H619.486C625.45 85.1289 630.296 89.9744 630.296 95.9382V474.024C630.296 479.987 625.45 484.833 619.486 484.833ZM165.476 87.7114C160.936 87.7114 157.248 91.3988 157.248 95.9382V474.024C157.248 478.563 160.936 482.25 165.476 482.25H619.486C624.026 482.25 627.714 478.563 627.714 474.024V95.9382C627.714 91.3988 624.026 87.7114 619.486 87.7114H165.476Z"
              fill="white"/>
        <path d="M195.951 118.755C191.557 118.755 187.989 115.187 187.989 110.795C187.989 106.402 191.557 102.834 195.951 102.834C200.344 102.834 203.912 106.402 203.912 110.795C203.912 115.187 200.344 118.755 195.951 118.755ZM195.951 105.417C192.982 105.417 190.572 107.826 190.572 110.795C190.572 113.763 192.982 116.173 195.951 116.173C198.92 116.173 201.33 113.763 201.33 110.795C201.33 107.826 198.92 105.417 195.951 105.417Z"
              fill="white"/>
        <path d="M221.873 118.755C217.479 118.755 213.911 115.187 213.911 110.795C213.911 106.402 217.479 102.834 221.873 102.834C226.266 102.834 229.834 106.402 229.834 110.795C229.834 115.187 226.253 118.755 221.873 118.755ZM221.873 105.417C218.904 105.417 216.494 107.826 216.494 110.795C216.494 113.763 218.904 116.173 221.873 116.173C224.841 116.173 227.251 113.763 227.251 110.795C227.238 107.826 224.828 105.417 221.873 105.417Z"
              fill="white"/>
        <path d="M247.781 118.755C243.387 118.755 239.819 115.187 239.819 110.795C239.819 106.402 243.387 102.834 247.781 102.834C252.174 102.834 255.743 106.402 255.743 110.795C255.743 115.187 252.174 118.755 247.781 118.755ZM247.781 105.417C244.812 105.417 242.402 107.826 242.402 110.795C242.402 113.763 244.812 116.173 247.781 116.173C250.75 116.173 253.16 113.763 253.16 110.795C253.16 107.826 250.75 105.417 247.781 105.417Z"
              fill="white"/>
        <path d="M254.172 411.978H13.7797C6.17755 411.978 0 405.801 0 398.187V309.09C0 301.476 6.17755 295.312 13.7797 295.312H254.158C261.774 295.312 267.938 301.489 267.938 309.09V398.187C267.951 405.801 261.774 411.978 254.172 411.978Z"
              fill="#FFD4CD"/>
        <path d="M27.4262 323.028C24.0845 323.028 21.3685 320.312 21.3685 316.971C21.3685 313.63 24.0845 310.914 27.4262 310.914C30.7679 310.914 33.4839 313.63 33.4839 316.971C33.4839 320.312 30.7679 323.028 27.4262 323.028ZM27.4262 312.884C25.1762 312.884 23.3389 314.721 23.3389 316.971C23.3389 319.221 25.1762 321.058 27.4262 321.058C29.6762 321.058 31.5135 319.221 31.5135 316.971C31.5135 314.721 29.6762 312.884 27.4262 312.884Z"
              fill="#FEFEF4"/>
        <path d="M47.1438 323.028C43.802 323.028 41.086 320.312 41.086 316.971C41.086 313.63 43.802 310.914 47.1438 310.914C50.4855 310.914 53.2015 313.63 53.2015 316.971C53.2015 320.312 50.4855 323.028 47.1438 323.028ZM47.1438 312.884C44.8937 312.884 43.0565 314.721 43.0565 316.971C43.0565 319.221 44.8937 321.058 47.1438 321.058C49.3938 321.058 51.2311 319.221 51.2311 316.971C51.2311 314.721 49.3938 312.884 47.1438 312.884Z"
              fill="#FEFEF4"/>
        <path d="M66.8613 323.028C63.5196 323.028 60.8036 320.312 60.8036 316.971C60.8036 313.63 63.5196 310.914 66.8613 310.914C70.2031 310.914 72.919 313.63 72.919 316.971C72.919 320.312 70.2031 323.028 66.8613 323.028ZM66.8613 312.884C64.6113 312.884 62.774 314.721 62.774 316.971C62.774 319.221 64.6113 321.058 66.8613 321.058C69.1113 321.058 70.9486 319.221 70.9486 316.971C70.9486 314.721 69.1113 312.884 66.8613 312.884Z"
              fill="#FEFEF4"/>
        <path d="M267.951 335.195H0V337.165H267.951V335.195Z" fill="#FEFEF4"/>
        <path d="M686.174 147.23H578.333C569.333 147.23 562.037 139.935 562.037 130.936V43.9559C562.037 34.957 569.333 27.6621 578.333 27.6621H686.174C695.174 27.6621 702.47 34.957 702.47 43.9559V130.936C702.47 139.922 695.174 147.23 686.174 147.23Z"
              fill="#FFB200"/>
        <path d="M623.4 101.037C610.02 101.037 599.129 90.1481 599.129 76.7696C599.129 63.3911 610.02 52.502 623.4 52.502C636.78 52.502 647.671 63.3911 647.671 76.7696C647.658 90.1614 636.78 101.037 623.4 101.037ZM623.4 58.0131C613.055 58.0131 604.628 66.4262 604.628 76.7829C604.628 87.1263 613.042 95.5527 623.4 95.5527C633.745 95.5527 642.172 87.1396 642.172 76.7829C642.159 66.4262 633.745 58.0131 623.4 58.0131Z"
              fill="#FEFEF4"/>
        <path d="M640.523 90.0754L636.635 93.9629L643.799 101.126L647.687 97.2386L640.523 90.0754Z" fill="#FEFEF4"/>
        <path d="M651.372 96.2044L665.551 110.382C667.055 111.886 667.055 114.322 665.551 115.826L662.396 118.981C660.891 120.485 658.455 120.485 656.95 118.981L642.771 104.804C641.267 103.3 641.267 100.864 642.771 99.3593L645.927 96.2044C647.431 94.7001 649.868 94.7001 651.372 96.2044Z"
              fill="#FEFEF4"/>
        <path d="M114.791 109.743H52.8154C42.4307 109.743 34.0031 101.317 34.0031 90.9336V38.3781C34.0031 27.9815 42.4307 19.5684 52.8154 19.5684H114.791C125.189 19.5684 133.603 27.9948 133.603 38.3781V90.9203C133.616 101.317 125.189 109.743 114.791 109.743Z"
              fill="#4CD080"/>
        <path d="M83.8096 84.0777C72.1735 84.0777 62.7074 74.6129 62.7074 62.9783C62.7074 51.3437 72.1735 41.8789 83.8096 41.8789C95.4458 41.8789 104.912 51.3437 104.912 62.9783C104.912 74.6129 95.4458 84.0777 83.8096 84.0777ZM83.8096 48.2154C75.675 48.2154 69.0447 54.8314 69.0447 62.9783C69.0447 71.1119 75.6616 77.7412 83.8096 77.7412C91.9576 77.7412 98.5745 71.1252 98.5745 62.9783C98.5745 54.8447 91.9443 48.2154 83.8096 48.2154Z"
              fill="#FEFEF4"/>
        <path d="M93.9191 46.3129L69.7191 75.8262L74.3727 79.6409L98.5727 50.1277L93.9191 46.3129Z" fill="#FEFEF4"/>
        <path d="M777.626 426.981H553.104C543.504 426.981 535.729 419.206 535.729 409.609V242.104C535.729 232.507 543.504 224.732 553.104 224.732H777.626C787.225 224.732 795 232.507 795 242.104V409.622C795 419.206 787.225 426.981 777.626 426.981Z"
              fill="#FF684C"/>
        <path d="M615.09 369V358.414H587.002V350.109L613.706 312H625.511V349.376H633.002V358.414H625.511V369H615.09ZM598.156 349.376H615.741V323.481L598.156 349.376Z"
              fill="white"/>
        <path d="M664.002 370C658.787 370 654.324 368.764 650.614 366.292C646.905 363.82 644.042 360.37 642.026 355.943C640.01 351.515 639.002 346.367 639.002 340.5C639.002 334.687 640.01 329.553 642.026 325.098C644.042 320.643 646.905 317.18 650.614 314.708C654.324 312.236 658.787 311 664.002 311C669.217 311 673.679 312.236 677.389 314.708C681.098 317.18 683.961 320.643 685.977 325.098C687.994 329.553 689.002 334.687 689.002 340.5C689.002 346.367 687.994 351.515 685.977 355.943C683.961 360.37 681.098 363.82 677.389 366.292C673.679 368.764 669.217 370 664.002 370ZM664.002 360.628C668.249 360.628 671.717 358.836 674.405 355.25C677.093 351.664 678.437 346.748 678.437 340.5C678.437 334.252 677.093 329.336 674.405 325.75C671.717 322.164 668.249 320.372 664.002 320.372C659.701 320.372 656.219 322.164 653.558 325.75C650.897 329.336 649.566 334.252 649.566 340.5C649.566 346.748 650.897 351.664 653.558 355.25C656.219 358.836 659.701 360.628 664.002 360.628Z"
              fill="white"/>
        <path d="M724.09 369V358.414H696.002V350.109L722.706 312H734.511V349.376H742.002V358.414H734.511V369H724.09ZM707.156 349.376H724.741V323.481L707.156 349.376Z"
              fill="white"/>
        <path d="M562.57 249.692C559.334 249.692 556.698 247.057 556.698 243.822C556.698 240.587 559.334 237.951 562.57 237.951C565.805 237.951 568.441 240.587 568.441 243.822C568.441 247.057 565.805 249.692 562.57 249.692ZM562.57 239.868C560.386 239.868 558.602 241.639 558.602 243.835C558.602 246.018 560.386 247.802 562.57 247.802C564.753 247.802 566.537 246.032 566.537 243.835C566.524 241.639 564.753 239.868 562.57 239.868Z"
              fill="#FEFEF4"/>
        <path d="M581.662 249.692C578.426 249.692 575.79 247.057 575.79 243.822C575.79 240.587 578.426 237.951 581.662 237.951C584.897 237.951 587.533 240.587 587.533 243.822C587.533 247.057 584.897 249.692 581.662 249.692ZM581.662 239.868C579.478 239.868 577.694 241.639 577.694 243.835C577.694 246.018 579.465 247.802 581.662 247.802C583.858 247.802 585.629 246.032 585.629 243.835C585.629 241.639 583.845 239.868 581.662 239.868Z"
              fill="#FEFEF4"/>
        <path d="M600.767 249.692C597.531 249.692 594.895 247.057 594.895 243.822C594.895 240.587 597.531 237.951 600.767 237.951C604.002 237.951 606.638 240.587 606.638 243.822C606.638 247.057 604.002 249.692 600.767 249.692ZM600.767 239.868C598.583 239.868 596.799 241.639 596.799 243.835C596.799 246.018 598.57 247.802 600.767 247.802C602.963 247.802 604.734 246.032 604.734 243.835C604.721 241.639 602.95 239.868 600.767 239.868Z"
              fill="#FEFEF4"/>
        <path d="M794.987 263.377H535.729V265.281H794.987V263.377Z" fill="#FEFEF4"/>
        <path d="M417.198 342.33L416.212 328.979L332.935 333.065V345.951C332.935 345.951 314.203 363.763 306.814 482.305H456.713C456.713 482.319 473.155 377.407 417.198 342.33Z"
              fill="#2AA7FF"/>
        <path d="M417.181 341.311L332.914 344.92L333.003 346.981L417.269 343.372L417.181 341.311Z" fill="#1B3C74"/>
        <path d="M375.632 482.44L366.472 408.372L349.764 401.57L350.549 399.666L368.363 406.921L377.683 482.187L375.632 482.44Z"
              fill="#1B3C74"/>
        <path d="M241.91 316.517L264.916 240.586L315.521 259.555L291.237 332.279C286.258 347.294 269.096 354.39 254.97 347.241C243.707 341.544 238.195 328.578 241.91 316.517Z"
              fill="#FC988D"/>
        <path d="M277.391 200.038C281.944 185.235 297.84 177.128 312.499 182.133C326.744 187.006 334.426 202.434 329.687 216.731L315.508 259.542L264.902 240.573L277.391 200.038Z"
              fill="#FEFEF4"/>
        <path d="M280.972 310.82L223.177 201.25C223.177 201.25 224.495 181.455 191.611 180.27L191.624 180.297C191.171 180.27 190.732 180.23 190.279 180.23H179.282C177.245 180.23 175.381 181.668 175.102 183.692C174.782 186.034 176.42 188.045 178.616 188.324L189.707 189.895L174.622 193.915L171.8 194.953L151.257 181.375C149.619 180.204 147.329 180.75 146.384 182.52C145.638 183.918 145.971 185.635 147.183 186.647C148.448 187.698 150.498 189.456 152.721 191.373L148.181 188.657C146.451 187.619 144.214 188.337 143.415 190.188C142.789 191.639 143.255 193.316 144.547 194.235C145.652 195.02 147.076 196.018 148.594 197.083L147.023 196.471C145.292 195.792 143.255 196.285 142.19 197.816C140.752 199.892 141.618 202.714 143.894 203.659L166.341 213.058C170.215 214.682 173.917 215.693 178.483 214.615L198.494 209.903L243.268 335.221L280.972 310.82Z"
              fill="#FC988D"/>
        <path d="M258.132 265.391L256.366 266.322L267.061 286.598L268.827 285.666L258.132 265.391Z" fill="#E27D7A"/>
        <path d="M322.378 180.923L300.889 182.534C300.889 182.534 269.789 224.72 332.935 333.079L416.212 328.992L422.483 212.246L412.205 179.1H374.9L322.378 180.923Z"
              fill="#FEFEF4"/>
        <path d="M297.068 253.433C296.815 252.888 290.784 239.789 294.765 210.955L296.815 211.235C292.928 239.469 298.879 252.422 298.945 252.555L297.068 253.433Z"
              fill="#FCE7E4"/>
        <path d="M491.302 301.274L456.713 229.869L409.689 256.506L445.023 324.544C452.279 338.601 470.346 342.927 483.18 333.662C493.418 326.274 496.84 312.603 491.302 301.274Z"
              fill="#FC988D"/>
        <path d="M438.047 191.758C431.23 177.847 414.269 172.322 400.569 179.564C387.255 186.593 382.089 203.046 388.999 216.425L409.689 256.507L456.713 229.87L438.047 191.758Z"
              fill="#FEFEF4"/>
        <path d="M393.527 222.952L391.693 223.898L408.774 256.984L410.608 256.038L393.527 222.952Z" fill="#FCE7E4"/>
        <path d="M563.488 179.112C562.437 177.581 560.386 177.101 558.655 177.767L548.617 181.681L558.056 173.694C559.614 172.376 560.053 170.033 558.882 168.369C557.524 166.452 554.928 166.159 553.21 167.557L544.436 174.625L551.919 164.841C553.157 163.217 553.09 160.834 551.573 159.463C549.842 157.879 547.246 158.159 545.848 159.876L531.07 175.211L515.985 171.191L527.075 169.62C529.272 169.341 530.923 167.331 530.59 164.988C530.311 162.964 528.447 161.527 526.41 161.527H515.413C508.916 161.527 502.578 163.79 497.772 168.103C497.692 168.169 497.612 168.209 497.532 168.276C490.782 173.6 493.245 184.503 493.245 184.503L451.826 301.754L492.873 319.965L516.531 194.048L531.642 194.074C532.574 194.167 533.519 194.154 534.465 194.074H534.584H534.571C536.195 193.928 537.806 193.542 539.337 192.903L561.784 184.956C564.061 183.997 564.913 181.188 563.488 179.112Z"
              fill="#FC988D"/>
        <path d="M466.951 252.717L458.001 283.941L459.921 284.492L468.871 253.267L466.951 252.717Z" fill="#E27D7A"/>
        <path d="M320.713 84.2103C318.13 85.9808 300.769 90.4935 300.423 93.6485C300.423 93.6485 306.135 115.973 300.29 120.139C284.473 131.401 279.414 153.486 279.414 153.486C279.414 153.486 321.139 184.729 432.042 151.928C432.042 151.928 433.374 138.643 413.203 129.005C407.452 126.249 402.326 122.109 399.091 116.465C396.588 112.099 396.202 110.248 395.536 106.335C393.672 95.3657 363.45 54.8841 320.713 84.2103Z"
              fill="#1B3C74"/>
        <path d="M322.351 117.663C322.857 124.985 317.332 131.348 310.009 131.854C302.687 132.36 296.323 126.835 295.817 119.514C295.311 112.192 300.836 105.829 308.159 105.323C315.494 104.817 321.845 110.342 322.351 117.663Z"
              fill="#E27D7A"/>
        <path d="M328.355 150.239L330.193 179.165C330.818 189.322 334.972 196.245 344.971 195.552C353.505 194.953 363.65 188.124 364.116 179.591L359.03 134.211L328.355 150.239Z"
              fill="#FC988D"/>
        <path d="M322.378 180.921L374.887 179.098C374.887 179.098 373.609 204.909 342.401 202.5C320.713 200.809 322.378 180.921 322.378 180.921Z"
              fill="#FC988D"/>
        <path d="M329.873 174.066L363.437 141.252L328.116 147.282L329.873 174.066Z" fill="#E27D7A"/>
        <path d="M337.169 154.91C320.074 154.963 305.962 141.505 305.456 127.554L304.444 94.6203C303.805 77.1284 317.159 62.2856 334.613 61.0742C352.493 59.8362 371.119 73.0949 372.357 90.9595L372.876 117.45C373.289 137.951 357.606 153.486 337.169 154.91Z"
              fill="#FC988D"/>
        <path d="M326.611 125.119C326.598 125.119 326.585 125.119 326.585 125.119L322.364 124.959C322.138 124.946 321.912 124.852 321.765 124.666C321.619 124.493 321.539 124.267 321.579 124.027L322.564 115.854C322.617 115.401 323.03 115.081 323.483 115.135C323.935 115.188 324.255 115.601 324.202 116.053L323.323 123.335L326.651 123.455C327.104 123.468 327.463 123.854 327.45 124.307C327.423 124.773 327.051 125.119 326.611 125.119Z"
              fill="#1B3C74"/>
        <path d="M340.258 96.0051C340.258 96.0051 330.818 95.233 330.725 99.0668C330.725 99.0668 330.739 101.663 338.966 102.182C347.208 102.701 349.351 102.089 350.097 99.6525C350.842 97.2164 344.678 96.0317 340.258 96.0051Z"
              fill="#1B3C74"/>
        <path d="M312.885 101.623C312.885 101.623 320.034 101.051 320.713 104.499C320.713 104.499 321.113 106.842 314.855 107.201C308.598 107.561 306.654 106.789 306.534 104.805C306.388 102.449 309.477 101.584 312.885 101.623Z"
              fill="#1B3C74"/>
        <path d="M317.039 112.845C317.092 114.509 315.787 115.906 314.123 115.96C312.459 116.013 311.061 114.708 311.008 113.044C310.954 111.38 312.259 109.983 313.923 109.929C315.588 109.876 316.986 111.181 317.039 112.845Z"
              fill="#1B3C74"/>
        <path d="M342.401 112.019C342.455 113.683 341.15 115.081 339.486 115.134C337.821 115.188 336.423 113.883 336.37 112.219C336.317 110.555 337.622 109.157 339.286 109.104C340.95 109.037 342.348 110.342 342.401 112.019Z"
              fill="#1B3C74"/>
        <path d="M323.709 133.424C323.483 133.424 323.243 133.331 323.083 133.145C322.79 132.799 322.83 132.28 323.163 131.987C328.888 127.048 333.708 129.151 333.907 129.244C334.32 129.431 334.506 129.923 334.32 130.336C334.134 130.749 333.654 130.935 333.228 130.749C333.068 130.669 329.141 129.018 324.241 133.238C324.095 133.358 323.895 133.424 323.709 133.424Z"
              fill="#1B3C74"/>
        <path d="M345.184 55.4171C340.923 55.1907 336.623 55.6567 332.509 56.7616C322.271 59.4905 303.898 67.065 300.743 86.7267C299.691 91.905 300.423 93.6489 300.423 93.6489C300.423 93.6489 334.746 94.9934 355.049 85.4088C357.965 97.7756 360.668 105.43 372.89 117.464L383.727 101.17L395.936 112.113C396.016 112.525 396.002 58.1194 345.184 55.4171Z"
              fill="#1B3C74"/>
        <path d="M390.69 117.796C391.196 125.118 385.671 131.481 378.348 131.987C371.026 132.492 364.662 126.968 364.156 119.646C363.65 112.325 369.175 105.962 376.498 105.456C383.834 104.95 390.184 110.475 390.69 117.796Z"
              fill="#F47C73"/>
        <path d="M372.344 123.347C371.918 123.347 371.558 123.014 371.518 122.575C371.505 122.375 371.225 117.796 374.101 114.987C375.765 113.363 378.095 112.684 381.051 112.964C381.504 113.003 381.836 113.403 381.796 113.855C381.757 114.308 381.37 114.641 380.905 114.601C378.468 114.375 376.564 114.894 375.259 116.172C372.916 118.461 373.156 122.428 373.169 122.468C373.196 122.921 372.863 123.32 372.41 123.347C372.384 123.347 372.37 123.347 372.344 123.347Z"
              fill="#1B3C74"/>
    </g>
    <defs>
        <clipPath id="clip0_706_5236">
            <rect width="795" height="539" fill="white"/>
        </clipPath>
    </defs>
</svg>
