<svg xmlns="http://www.w3.org/2000/svg" width="148" height="37" viewBox="0 0 148 37" fill="none"><path d="M4.93023 5.98006L4.04129 20.4544C3.9339 22.1992 5.32331 23.6729 7.07483 23.6729H33.0082C34.7598 23.6729 36.1492 22.1992 36.0418 20.4544L35.1529 5.98006C34.9467 2.61984 32.1555 0 28.782 0H11.3011C7.92759 0 5.13646 2.61984 4.93023 5.98006Z" fill="#60C5AE"></path><path d="M36.0414 20.4544L35.1442 5.98006C34.9361 2.61984 32.1192 0 28.7144 0H26.3629C29.7677 0 32.5846 2.61984 32.793 5.98006L33.6902 20.4544C33.7983 22.1992 32.3963 23.6729 30.6283 23.6729H32.9798C34.7475 23.6729 36.1498 22.1992 36.0414 20.4544Z" fill="#60C5AE"></path><path d="M4.99752 36.0473C4.01936 36.0473 3.30289 35.1144 3.54424 34.1541L4.75707 29.322H9.14633L6.34817 35.1891C6.09772 35.714 5.57314 36.0473 4.99752 36.0473Z" fill="#60C5AE"></path><path d="M34.8161 36.0473C35.7943 36.0473 36.5105 35.1144 36.2694 34.1541L35.0565 29.322H30.6672L33.4654 35.1891C33.7159 35.714 34.2405 36.0473 34.8161 36.0473Z" fill="#60C5AE"></path><path d="M10.8456 16.2191C16.976 15.397 23.1067 15.397 29.2371 16.2191C32.0567 16.5969 34.1642 19.0088 34.1642 21.8649V22.0588H5.91815V21.8649C5.91815 19.0088 8.026 16.5972 10.8456 16.2191Z" fill="#82C8B8"></path><path d="M7.64756 30.129C5.42559 30.129 3.4914 28.6153 2.96358 26.4629L0.0862832 14.726C-0.30331 13.1366 0.662721 11.5307 2.25229 11.1255C3.85255 10.7174 5.4895 11.6478 5.95189 13.229L8.04541 20.3871C8.30843 21.2867 9.1353 21.9051 10.075 21.9051H30.0076C30.9473 21.9051 31.7742 21.2867 32.0372 20.3871L34.1304 13.229C34.5931 11.6478 36.2294 10.7172 37.8297 11.1251L37.8303 11.1255C39.4196 11.5307 40.3856 13.1366 39.9963 14.726L37.1187 26.4629C36.5909 28.6153 34.6567 30.129 32.4348 30.129H7.64756Z" fill="#3C9581"></path><path d="M37.8355 11.1254C37.223 10.969 36.6049 11.0092 36.0496 11.2077C37.4734 11.717 38.3072 13.229 37.9411 14.726L35.0706 26.463C34.5441 28.6153 32.6145 30.1291 30.3981 30.1291H32.4531C34.6695 30.1291 36.5991 28.6153 37.1259 26.463L39.9963 14.726C40.385 13.1367 39.4213 11.5307 37.8355 11.1254Z" fill="#3C9581"></path><path d="M50.7823 27.7352L45.3347 7.53003H48.6206L52.627 24.2476L57.2388 7.53003H60.6111L65.0787 24.2476L69.0852 7.53003H72.371L66.837 27.7064H63.2629L58.8529 11.8824L54.2988 27.7064L50.7823 27.7352Z" fill="#3C9581"></path><path d="M80.2542 28.0524C78.89 28.0524 77.6601 27.7449 76.5648 27.13C75.4889 26.4959 74.6336 25.6216 73.9995 24.5071C73.3654 23.3734 73.0483 22.0571 73.0483 20.5583C73.0483 19.0595 73.3654 17.7528 73.9995 16.6383C74.653 15.5046 75.5272 14.6303 76.6224 14.0154C77.7177 13.3813 78.9382 13.0642 80.283 13.0642C81.6476 13.0642 82.8677 13.3813 83.9436 14.0154C85.0389 14.6303 85.9036 15.5046 86.5377 16.6383C87.1912 17.7528 87.5177 19.0595 87.5177 20.5583C87.5177 22.0571 87.1912 23.3734 86.5377 24.5071C85.9036 25.6216 85.0389 26.4959 83.9436 27.13C82.8483 27.7449 81.6188 28.0524 80.2542 28.0524ZM80.2542 25.4294C80.9847 25.4294 81.6571 25.2469 82.2718 24.8818C82.9059 24.5167 83.4153 23.9786 83.7995 23.2677C84.1841 22.5375 84.3759 21.6343 84.3759 20.5583C84.3759 19.4822 84.1841 18.5887 83.7995 17.8777C83.4347 17.1475 82.9348 16.5999 82.3006 16.2348C81.6859 15.8697 81.0135 15.6871 80.283 15.6871C79.553 15.6871 78.8707 15.8697 78.2365 16.2348C77.6218 16.5999 77.1223 17.1475 76.7377 17.8777C76.3536 18.5887 76.1613 19.4822 76.1613 20.5583C76.1613 21.6343 76.3536 22.5375 76.7377 23.2677C77.1223 23.9786 77.6218 24.5167 78.2365 24.8818C78.8517 25.2469 79.5241 25.4294 80.2542 25.4294Z" fill="#3C9581"></path><path d="M97.5091 28.0524C96.1449 28.0524 94.915 27.7449 93.8197 27.13C92.7438 26.4959 91.8885 25.6216 91.2544 24.5071C90.6203 23.3734 90.3032 22.0571 90.3032 20.5583C90.3032 19.0595 90.6203 17.7528 91.2544 16.6383C91.9079 15.5046 92.782 14.6303 93.8773 14.0154C94.9726 13.3813 96.1926 13.0642 97.5379 13.0642C98.902 13.0642 100.123 13.3813 101.198 14.0154C102.294 14.6303 103.158 15.5046 103.793 16.6383C104.446 17.7528 104.773 19.0595 104.773 20.5583C104.773 22.0571 104.446 23.3734 103.793 24.5071C103.158 25.6216 102.294 26.4959 101.198 27.13C100.103 27.7449 98.8732 28.0524 97.5091 28.0524ZM97.5091 25.4294C98.2391 25.4294 98.912 25.2469 99.5267 24.8818C100.161 24.5167 100.67 23.9786 101.054 23.2677C101.438 22.5375 101.631 21.6343 101.631 20.5583C101.631 19.4822 101.438 18.5887 101.054 17.8777C100.689 17.1475 100.19 16.5999 99.5555 16.2348C98.9408 15.8697 98.2679 15.6871 97.5379 15.6871C96.8078 15.6871 96.1255 15.8697 95.4914 16.2348C94.8767 16.5999 94.3768 17.1475 93.9926 17.8777C93.6085 18.5887 93.4161 19.4822 93.4161 20.5583C93.4161 21.6343 93.6085 22.5375 93.9926 23.2677C94.3768 23.9786 94.8767 24.5167 95.4914 24.8818C96.1062 25.2469 96.779 25.4294 97.5091 25.4294Z" fill="#3C9581"></path><path d="M114.591 28.0523C113.207 28.0523 111.987 27.7257 110.93 27.0723C109.874 26.419 109.047 25.5255 108.451 24.3918C107.856 23.258 107.558 21.9706 107.558 20.5294C107.558 19.0883 107.856 17.8104 108.451 16.6959C109.047 15.5622 109.874 14.6783 110.93 14.0442C112.007 13.3908 113.236 13.0642 114.62 13.0642C115.754 13.0642 116.743 13.2852 117.588 13.7271C118.453 14.169 119.126 14.7936 119.606 15.6006V6.95361H122.661V27.7064H119.923L119.606 25.487C119.145 26.1596 118.511 26.7553 117.704 27.2741C116.897 27.7929 115.859 28.0523 114.591 28.0523ZM115.138 25.4006C116.445 25.4006 117.512 24.949 118.338 24.0459C119.184 23.1428 119.606 21.9802 119.606 20.5582C119.606 19.1171 119.184 17.9545 118.338 17.0706C117.512 16.1675 116.445 15.7159 115.138 15.7159C113.832 15.7159 112.756 16.1675 111.91 17.0706C111.065 17.9545 110.642 19.1171 110.642 20.5582C110.642 21.4998 110.834 22.3357 111.218 23.0659C111.603 23.7961 112.131 24.3725 112.804 24.7953C113.495 25.1988 114.274 25.4006 115.138 25.4006Z" fill="#3C9581"></path><path d="M126.514 27.7064V6.95361H129.569V27.7064H126.514Z" fill="#3C9581"></path><path d="M135.11 34.0477L138.54 26.5248H137.704L132.054 13.4102H135.369L139.75 23.9883L144.333 13.4102H147.561L138.338 34.0477H135.11Z" fill="#3C9581"></path></svg>